<svg width="38" height="39" viewBox="0 0 38 39" fill="none" xmlns="http://www.w3.org/2000/svg">
<path d="M20.4913 18.0087L20.4558 2.06623C20.4558 1.21407 19.7812 0.539443 18.9646 0.57495C18.1124 0.57495 17.4378 1.24958 17.4733 2.06623L17.5088 18.0087L1.53079 18.0087C0.67863 18.0087 0.00400361 18.6833 0.0395104 19.5C0.0395106 20.3522 0.714137 21.0268 1.53079 20.9913L17.4733 21.0268L17.5088 36.9693C17.5088 37.8214 18.1834 38.4961 19.0001 38.4605C19.4261 38.4605 19.8167 38.283 20.0653 38.0345C20.3138 37.7859 20.4913 37.3954 20.4913 36.9693L20.4913 20.9913L36.4693 20.9913C36.8954 20.9913 37.286 20.8137 37.5345 20.5652C37.7831 20.3166 37.9606 19.9261 37.9606 19.5C37.9606 18.6478 37.286 17.9732 36.4693 18.0087L20.4913 18.0087Z" fill="#010101"/>
</svg>
