<svg width="40" height="40" viewBox="0 0 40 40" fill="none" xmlns="http://www.w3.org/2000/svg">
<path d="M20 40C31.0303 40 40 31.0303 40 20C40 8.9697 31.0303 0 20 0C8.96968 0 -8.83371e-06 8.9697 -5.6936e-06 20C-2.55349e-06 31.0303 8.9697 40 20 40ZM20 1.81818C30 1.81818 38.1818 10 38.1818 20C38.1818 30 30 38.1818 20 38.1818C10 38.1818 1.81818 30 1.81817 20C1.81817 10 9.99999 1.81818 20 1.81818Z" fill="black"/>
<path d="M29.879 19.1214L11.5154 19.1214L20.5457 10.3941C20.9093 10.0304 20.9093 9.48499 20.5457 9.12136C20.182 8.75772 19.6366 8.75772 19.2729 9.12136L9.33354 18.6971C8.60627 19.4244 8.60627 20.5759 9.33354 21.3032L19.2729 30.9395C19.4548 31.1214 19.6972 31.182 19.879 31.182C20.1214 31.182 20.3639 31.0607 20.6063 30.8789C20.9093 30.5153 20.8487 29.9092 20.4851 29.6062L11.5154 20.9395L29.879 20.9395C30.3638 20.9395 30.7881 20.5153 30.7881 20.0304C30.7881 19.5456 30.3638 19.1214 29.879 19.1214Z" fill="black"/>
</svg>
