<svg width="32" height="32" viewBox="0 0 32 32" fill="none" xmlns="http://www.w3.org/2000/svg">
<path d="M16 5.88478e-06C7.17576 2.63923e-06 -5.9644e-07 7.17576 -1.3299e-06 16C-2.06336e-06 24.8242 7.17575 32 16 32C24.8242 32 32 24.8243 32 16C32 7.17577 24.8242 9.13033e-06 16 5.88478e-06ZM16 30.5455C8 30.5455 1.45454 24 1.45454 16C1.45454 8 8 1.45455 16 1.45455C24 1.45455 30.5455 8.00001 30.5455 16C30.5455 24 24 30.5455 16 30.5455Z" fill="white"/>
<path d="M10.967 22.2018L21.3551 11.8138L21.1837 21.859C21.1837 22.2704 21.4922 22.579 21.9036 22.579C22.315 22.579 22.6236 22.2704 22.6236 21.859L22.8293 10.8196C22.8293 9.99675 22.1779 9.34535 21.3551 9.34535L10.2814 9.51677C10.0756 9.51677 9.90423 9.61962 9.80138 9.72248C9.66424 9.85961 9.59567 10.0653 9.56139 10.3053C9.59567 10.6824 9.9728 10.991 10.3499 10.9567L20.3266 10.7853L9.93851 21.1733C9.66424 21.4476 9.66424 21.9276 9.93851 22.2018C10.2128 22.4761 10.6928 22.4761 10.967 22.2018Z" fill="white"/>
</svg>
