<svg width="35" height="35" viewBox="0 0 35 35" fill="none" xmlns="http://www.w3.org/2000/svg">
<path d="M17.5 6.43648e-06C7.84848 2.88666e-06 -6.52356e-07 7.84848 -1.45458e-06 17.5C-2.2568e-06 27.1515 7.84848 35 17.5 35C27.1515 35 35 27.1515 35 17.5C35 7.8485 27.1515 9.98629e-06 17.5 6.43648e-06ZM17.5 33.4091C8.75 33.4091 1.59091 26.25 1.59091 17.5C1.59091 8.75 8.75 1.59091 17.5 1.59092C26.25 1.59092 33.4091 8.75001 33.4091 17.5C33.4091 26.25 26.25 33.4091 17.5 33.4091Z" fill="black"/>
<path d="M7.88536 18.4971L23.9535 18.4971L16.052 26.1334C15.7338 26.4516 15.7338 26.9289 16.052 27.2471C16.3702 27.5653 16.8475 27.5653 17.1657 27.2471L25.8626 18.8683C26.499 18.2319 26.499 17.2244 25.8626 16.588L17.1657 8.15617C17.0066 7.99708 16.7944 7.94405 16.6354 7.94405C16.4232 7.94405 16.2111 8.05011 15.999 8.2092C15.7338 8.52738 15.7869 9.05768 16.1051 9.32284L23.9535 16.9062L7.88536 16.9062C7.46112 16.9062 7.08991 17.2774 7.08991 17.7016C7.08991 18.1259 7.46112 18.4971 7.88536 18.4971Z" fill="black"/>
</svg>
