<svg width="40" height="40" viewBox="0 0 40 40" fill="none" xmlns="http://www.w3.org/2000/svg">
<path d="M20 7.35598e-06C8.9697 3.29904e-06 -7.4555e-07 8.9697 -1.66237e-06 20C-2.5792e-06 31.0303 8.96969 40 20 40C31.0303 40 40 31.0303 40 20C40 8.96971 31.0303 1.14129e-05 20 7.35598e-06ZM20 38.1818C10 38.1818 1.81818 30 1.81818 20C1.81818 10 10 1.81819 20 1.81819C30 1.81819 38.1818 10 38.1818 20C38.1818 30 30 38.1818 20 38.1818Z" fill="black"/>
<path d="M10.121 20.8786L28.4846 20.8786L19.4543 29.6059C19.0907 29.9696 19.0907 30.515 19.4543 30.8786C19.818 31.2423 20.3634 31.2423 20.7271 30.8786L30.6665 21.3029C31.3937 20.5756 31.3937 19.4241 30.6665 18.6968L20.7271 9.06046C20.5452 8.87864 20.3028 8.81804 20.121 8.81804C19.8786 8.81804 19.6362 8.93925 19.3937 9.12107C19.0907 9.4847 19.1513 10.0908 19.5149 10.3938L28.4846 19.0605L10.121 19.0605C9.63616 19.0605 9.21192 19.4847 9.21192 19.9695C9.21192 20.4544 9.63616 20.8786 10.121 20.8786Z" fill="black"/>
</svg>
